<svg xmlns="http://www.w3.org/2000/svg" width="500" height="500" style="width:100%;height:100%;transform:translate3d(0,0,0);content-visibility:visible" viewBox="0 0 500 500"><defs><mask id="i" mask-type="alpha"><use xmlns:ns1="http://www.w3.org/1999/xlink" ns1:href="#a"/></mask><mask id="h" mask-type="alpha"><use xmlns:ns2="http://www.w3.org/1999/xlink" ns2:href="#b"/></mask><mask id="g" mask-type="alpha"><use xmlns:ns3="http://www.w3.org/1999/xlink" ns3:href="#c"/></mask><mask id="f" mask-type="alpha"><use xmlns:ns4="http://www.w3.org/1999/xlink" ns4:href="#d"/></mask><g id="a" style="display:block"><path fill="#121331" d="M450.158 250c0 111.285-90.215 201.5-201.5 201.5s-201.5-90.215-201.5-201.5 90.215-201.5 201.5-201.5 201.5 90.215 201.5 201.5z"/><path fill="#121331" d="M450.158 250c0 111.285-90.215 201.5-201.5 201.5s-201.5-90.215-201.5-201.5 90.215-201.5 201.5-201.5 201.5 90.215 201.5 201.5z"/><path fill-opacity="0" stroke="#121331" stroke-linecap="round" stroke-linejoin="round" stroke-width="14.105" d="M450.158 250c0 111.285-90.215 201.5-201.5 201.5s-201.5-90.215-201.5-201.5 90.215-201.5 201.5-201.5 201.5 90.215 201.5 201.5z"/></g><g id="b" style="display:block"><path fill="#121331" d="M450.158 250c0 111.285-90.215 201.5-201.5 201.5s-201.5-90.215-201.5-201.5 90.215-201.5 201.5-201.5 201.5 90.215 201.5 201.5z"/><path fill-opacity="0" stroke="#121331" stroke-linecap="round" stroke-linejoin="round" stroke-width="14.105" d="M450.158 250c0 111.285-90.215 201.5-201.5 201.5s-201.5-90.215-201.5-201.5 90.215-201.5 201.5-201.5 201.5 90.215 201.5 201.5z"/></g><g id="c" style="display:block"><path fill="#121331" d="M450.158 250c0 111.285-90.215 201.5-201.5 201.5s-201.5-90.215-201.5-201.5 90.215-201.5 201.5-201.5 201.5 90.215 201.5 201.5z"/><path fill="#121331" d="M450.158 250c0 111.285-90.215 201.5-201.5 201.5s-201.5-90.215-201.5-201.5 90.215-201.5 201.5-201.5 201.5 90.215 201.5 201.5z"/><path fill-opacity="0" stroke="#121331" stroke-linecap="round" stroke-linejoin="round" stroke-width="14.105" d="M450.158 250c0 111.285-90.215 201.5-201.5 201.5s-201.5-90.215-201.5-201.5 90.215-201.5 201.5-201.5 201.5 90.215 201.5 201.5z"/></g><g id="d" style="display:block"><path fill="#121331" d="M449.054 250c0 110.67-89.718 200.389-200.389 200.389-110.67 0-200.388-89.718-200.388-200.389 0-110.67 89.718-200.389 200.388-200.389 110.671 0 200.39 89.718 200.39 200.389z"/><path fill-opacity="0" stroke="#121331" stroke-linecap="round" stroke-linejoin="round" stroke-width="14.027" d="M449.054 250c0 110.67-89.718 200.389-200.389 200.389-110.67 0-200.388-89.718-200.388-200.389 0-110.67 89.718-200.389 200.388-200.389 110.671 0 200.39 89.718 200.39 200.389z"/></g><clipPath id="e"><path d="M0 0h500v500H0z"/></clipPath></defs><g clip-path="url(#e)"><g fill="#EBE6EF" style="display:block"><path d="M453.234 250.929c0 112.838-91.474 204.312-204.312 204.312-112.838 0-204.312-91.474-204.312-204.312 0-112.838 91.474-204.312 204.312-204.312 112.838 0 204.312 91.474 204.312 204.312z"/><path d="M-87.998-19.669c0-65.468 35.981-122.523 89.24-152.497-75.599 19.295-131.5 87.845-131.5 169.453 0 96.582 78.296 174.879 174.878 174.879 31.115 0 60.325-8.137 85.638-22.383a175.206 175.206 0 0 1-43.377 5.426c-96.582 0-174.879-78.297-174.879-174.878z" opacity=".5" style="mix-blend-mode:multiply" transform="translate(196.845 254.088) scale(1.16831)"/></g><g fill="#2CA58D" mask="url(#f)" style="display:block"><path d="m328.288 248.047-114.364-75.35c-1.103-.717-4.745-4.113-5.915-3.503-1.17.613-.787 5.83-.787 7.124l.278 153.754c0 1.294.035.955 1.204 1.567.534.278 2.09-1.527 2.673-1.527.696 0 5.14-3.53 5.741-3.921l110.336-73.266c1.005-.65 3.553-1.471 3.553-2.647 0-1.176-1.714-1.58-2.719-2.231z"/><path d="M10.821-67.935-5.245-78.646c-1.073-.73-4.115-3.271-5.26-2.664-.918.071-.594 2.661-.594 3.978l-.557 158.183c0 1.317-.121-1.589.316-.312.612.7 2.089.117 1.654.424.44-.514 3.717-2.553 4.301-2.95l16.206-11.126V-67.935z" opacity=".5" style="mix-blend-mode:multiply" transform="matrix(.99845 0 0 1.00356 218.905 250.556)"/></g><g fill="#2CA58D" mask="url(#g)" style="display:block"><path d="m12.268 248.974-141.258-58.076c-1.284-.538-2.037-1.107-4.548-1.898-.906.166-.542 3.12-.542 4.09l.084 114.12c0 .97-.366 4.247.708 4.091.563-.267 1.094-.209 2.314-.625.714-.244 4.03-1.406 3.818-1.377l134.008-55.89c1.17-.487 6.372-2.351 6.372-3.232 0-.881.214-.715-.956-1.203z"/><path d="M11.025-66.324-3.349-76.556c-3.616-1.808-7.474-6.454-8.611-5.812-1.137.642-.489 5.62-.489 6.977l.136 159.191c0 1.357-.563 5.399.624 4.855 1.603-.734 1.888.977 1.655.437-.021-.676 4.065-3.718 4.649-4.127l17.291-12.061-.881-139.228z" opacity=".5" style="mix-blend-mode:multiply" transform="matrix(1.22848 0 0 .71194 -118.887 247.82)"/></g><g mask="url(#h)" style="display:block"><path fill="none" stroke="#121331" stroke-linecap="round" stroke-linejoin="round" stroke-width="7.572" d="m331.128 250-123.713-82.194v164.388L331.128 250z"/></g><g mask="url(#i)" style="display:none"><path fill="none"/></g><path fill="none" stroke="#121331" stroke-linecap="round" stroke-linejoin="round" stroke-width="2.03" d="M49.667 0c0 27.614-22.386 50-50 50s-50-22.386-50-50 22.386-50 50-50 50 22.386 50 50z" style="display:block" transform="translate(250 252.223) scale(4.08763)"/><g class="com" style="display:none"><path/><path/><path/><path/><path/><path/><path/><path/><path/><path/><path/><path/></g></g></svg>